<?xml version="1.0" standalone="no"?>
<!DOCTYPE svg PUBLIC "-//W3C//DTD SVG 20010904//EN"
 "http://www.w3.org/TR/2001/REC-SVG-20010904/DTD/svg10.dtd">
<svg version="1.0" xmlns="http://www.w3.org/2000/svg"
 width="40px" height="40px" viewBox="0 0 100 100"
 preserveAspectRatio="xMidYMid meet">
<metadata>
Created by potrace 1.10, written by Peter Selinger 2001-2011
</metadata>
<g transform="translate(0.000000,100.000000) scale(0.100000,-0.100000)"
fill="#000000" stroke="none">
<path d="M405 958 c-132 -25 -266 -128 -324 -250 -123 -258 -2 -553 267 -650
79 -29 224 -29 303 0 140 50 241 151 291 291 29 79 29 224 0 303 -82 226 -302
351 -537 306z m180 -23 c105 -16 213 -87 286 -188 88 -122 92 -357 7 -482 -57
-83 -143 -153 -224 -182 -60 -22 -276 -25 -296 -5 -7 7 -19 12 -28 12 -23 0
-92 47 -147 101 -25 24 -61 75 -81 114 -37 70 -37 71 -37 195 0 122 1 127 33
192 51 100 166 207 237 221 11 2 27 7 35 11 48 21 126 25 215 11z"/>
<path d="M367 876 c-148 -61 -252 -214 -251 -371 0 -133 66 -264 167 -332 49
-33 134 -69 142 -61 3 3 4 181 3 396 l-3 391 -58 -23z m43 -213 l0 -206 -22
20 c-13 12 -61 45 -107 74 -65 41 -87 50 -100 42 -25 -16 -24 -38 4 -102 33
-72 52 -92 100 -98 48 -6 80 2 105 30 l21 22 -2 -157 c-2 -140 -3 -156 -18
-148 -9 4 -33 16 -55 26 -66 32 -123 91 -158 162 -31 62 -33 73 -33 172 0 94
3 111 27 160 43 87 147 186 214 203 10 2 20 5 22 6 1 0 2 -92 2 -206z m-127
-144 c51 -34 94 -64 97 -66 14 -13 -40 -34 -80 -31 -37 3 -48 8 -66 36 -22 32
-57 122 -48 122 3 0 46 -28 97 -61z"/>
<path d="M570 505 c0 -309 3 -395 13 -395 6 0 40 13 75 30 196 92 281 339 186
535 -49 100 -118 163 -223 205 l-51 20 0 -395z m171 277 c27 -24 49 -50 49
-58 0 -8 3 -14 8 -14 4 0 18 -24 32 -52 22 -46 25 -67 25 -158 0 -92 -3 -112
-26 -160 -33 -70 -101 -139 -178 -178 l-61 -31 0 149 0 150 33 -20 c42 -26 97
-26 131 1 34 26 76 109 76 148 0 54 -30 49 -140 -23 l-100 -66 0 200 0 199 51
-21 c28 -12 73 -41 100 -66z m43 -282 c-29 -66 -46 -80 -93 -80 -31 0 -81 18
-80 29 1 12 194 130 197 121 2 -5 -9 -37 -24 -70z"/>
</g>
</svg>
